#Model generated with Minecraft Model Studio

#Number of verticies: 84
#Number of texture coordinates: 138
#Number of normals: 10
#Number of groups: 2

#Verticies
v -0.5 0 -0.5
v -0.5 0 0.5
v -0.5 0.0625 -0.5
v -0.5 0.0625 0.5
v 0.5 0.0625 -0.5
v 0.5 0.0625 0.5
v 0.5 0 -0.5
v 0.5 0 0.5
v -0.4375 0.0625 -0.375
v -0.4375 0.0625 0.25
v -0.4375 0.8125 -0.375
v -0.4375 0.8125 0.25
v -0.0625 0.8125 -0.375
v -0.0625 0.8125 0.25
v -0.0625 0.0625 -0.375
v -0.0625 0.0625 0.25
v -0.15625 0.40625 -0.5
v -0.15625 0.40625 -0.4375
v -0.15625 0.71875 -0.5
v -0.15625 0.71875 -0.4375
v 0.15625 0.71875 -0.5
v 0.15625 0.71875 -0.4375
v 0.15625 0.40625 -0.5
v 0.15625 0.40625 -0.4375
v -0.0625 0.5 -0.4375
v -0.0625 0.5 -0.25
v -0.0625 0.625 -0.4375
v -0.0625 0.625 -0.25
v 0.0625 0.625 -0.4375
v 0.0625 0.625 -0.25
v 0.0625 0.5 -0.4375
v 0.0625 0.5 -0.25
v -0.5 0.40625 -0.15625
v -0.5 0.40625 0.15625
v -0.5 0.71875 -0.15625
v -0.5 0.71875 0.15625
v -0.4375 0.71875 -0.15625
v -0.4375 0.71875 0.15625
v -0.4375 0.40625 -0.15625
v -0.4375 0.40625 0.15625
v -0.30586299300193787 0.8125 -0.14834538102149963
v -0.34861552715301514 0.8125 -0.030883805826306343
v -0.30586299300193787 0.9375 -0.14834538102149963
v -0.34861552715301514 0.9375 -0.030883805826306343
v 0.10525251924991608 0.9375 0.0012884283205494285
v 0.0625 0.9375 0.11875000596046448
v 0.10525251924991608 0.8125 0.0012884283205494285
v 0.0625 0.8125 0.11875000596046448
v 0.0625 0.0625 -0.25
v 0.0625 0.0625 0.375
v 0.0625 1 -0.25
v 0.0625 1 0.375
v 0.4375 1 -0.25
v 0.4375 1 0.375
v 0.4375 0.0625 -0.25
v 0.4375 0.0625 0.375
v 0.15625 0.40625 0.5
v 0.15625 0.40625 0.4375
v 0.15625 0.71875 0.5
v 0.15625 0.71875 0.4375
v -0.15625 0.71875 0.5
v -0.15625 0.71875 0.4375
v -0.15625 0.40625 0.5
v -0.15625 0.40625 0.4375
v 0.5 0.71875 -0.15625
v 0.5 0.71875 0.15625
v 0.5 0.40625 -0.15625
v 0.5 0.40625 0.15625
v 0.4375 0.40625 -0.15625
v 0.4375 0.40625 0.15625
v 0.4375 0.71875 -0.15625
v 0.4375 0.71875 0.15625
v -0.0625 0.5 0.25
v -0.0625 0.5 0.4375
v -0.0625 0.625 0.25
v -0.0625 0.625 0.4375
v 0.0625 0.625 0.25
v 0.0625 0.625 0.4375
v 0.0625 0.5 0.25
v 0.0625 0.5 0.4375
v -0.0625 0.0625 0.375
v -0.0625 0.5 0.375
v 0.0625 0.0625 0.25
v 0.0625 0.5 0.375

#Texture Coordinates
vt 0.5 0.734375
vt 0.75 0.734375
vt 0.5 0.75
vt 0.75 0.75
vt 0.25 0.75
vt 0.25 1
vt 0.5 1
vt 0.25 0.734375
vt 0 0.734375
vt 0 0.75
vt 0.75 1
vt 1 0.734375
vt 1 0.75
vt 0.25 0.375
vt 0.40625 0.375
vt 0.25 0.5625
vt 0.40625 0.5625
vt 0.15625 0.5625
vt 0.15625 0.71875
vt 0.25 0.71875
vt 0.15625 0.375
vt 0 0.375
vt 0 0.5625
vt 0.5 0.375
vt 0.5 0.5625
vt 0.09375 0.90625
vt 0.109375 0.90625
vt 0.09375 0.984375
vt 0.109375 0.984375
vt 0.015625 0.984375
vt 0.015625 1
vt 0.09375 1
vt 0.015625 0.90625
vt 0 0.90625
vt 0 0.984375
vt 0.171875 1
vt 0.171875 0.984375
vt 0.1875 0.90625
vt 0.1875 0.984375
vt 0.078125 0.8125
vt 0.125 0.8125
vt 0.078125 0.84375
vt 0.125 0.84375
vt 0.046875 0.84375
vt 0.046875 0.890625
vt 0.078125 0.890625
vt 0.046875 0.8125
vt 0 0.8125
vt 0 0.84375
vt 0.109375 0.890625
vt 0.109375 0.84375
vt 0.15625 0.8125
vt 0.15625 0.84375
vt 0.015625 0.578125
vt 0.09375 0.578125
vt 0.015625 0.65625
vt 0.09375 0.65625
vt 0 0.65625
vt 0.015625 0.734375
vt 0 0.578125
vt 0.03125 0.734375
vt 0.03125 0.65625
vt 0.109375 0.578125
vt 0.109375 0.65625
vt 0.46875 0.65625
vt 0.5 0.65625
vt 0.46875 0.6875
vt 0.5 0.6875
vt 0.359375 0.6875
vt 0.359375 0.71875
vt 0.46875 0.71875
vt 0.359375 0.65625
vt 0.578125 0.71875
vt 0.578125 0.6875
vt 0.609375 0.65625
vt 0.609375 0.6875
vt 0.609375 0.125
vt 0.765625 0.125
vt 0.609375 0.359375
vt 0.765625 0.359375
vt 0.515625 0.359375
vt 0.515625 0.515625
vt 0.609375 0.515625
vt 0.515625 0.125
vt 0.359375 0.125
vt 0.359375 0.359375
vt 0.859375 0.125
vt 0.859375 0.359375
vt 0.875 0.90625
vt 0.890625 0.90625
vt 0.875 0.984375
vt 0.890625 0.984375
vt 0.796875 0.984375
vt 0.796875 1
vt 0.875 1
vt 0.796875 0.90625
vt 0.78125 0.90625
vt 0.78125 0.984375
vt 0.953125 1
vt 0.953125 0.984375
vt 0.96875 0.90625
vt 0.96875 0.984375
vt 0.640625 0.578125
vt 0.71875 0.578125
vt 0.640625 0.65625
vt 0.71875 0.65625
vt 0.625 0.65625
vt 0.625 0.734375
vt 0.640625 0.734375
vt 0.625 0.578125
vt 0.65625 0.734375
vt 0.65625 0.65625
vt 0.734375 0.578125
vt 0.734375 0.65625
vt 0.078125 0.28125
vt 0.125 0.28125
vt 0.078125 0.3125
vt 0.125 0.3125
vt 0.046875 0.3125
vt 0.046875 0.359375
vt 0.078125 0.359375
vt 0.046875 0.28125
vt 0 0.28125
vt 0 0.3125
vt 0.109375 0.359375
vt 0.109375 0.3125
vt 0.03125 0.140625
vt 0.0625 0.140625
vt 0.03125 0.25
vt 0.0625 0.25
vt 0 0.140625
vt 0 0.25
vt 0.09375 0.140625
vt 0.09375 0.25
vt 0.703125 0.359375
vt 0.703125 0.515625
vt 0.34375 0.5625
vt 0.34375 0.71875

#Normals
vn -1 0 0
vn 0 1 0
vn 0 0 -1
vn 1 0 0
vn 0 -1 0
vn 0 0 1
vn -0.9396926164627075 0 -0.3420201539993286
vn 0.3420201539993286 0 -0.9396926164627075
vn 0 -1 -0
vn -0.3420201539993286 0 0.9396926164627075

g root
#Number of faces: 0


g main
#Number of faces: 138

f 1/1/1 2/2/1 3/3/1
f 3/3/1 2/2/1 4/4/1
f 5/5/2 3/3/2 6/6/2
f 6/6/2 3/3/2 4/7/2
f 7/8/3 1/1/3 5/5/3
f 5/5/3 1/1/3 3/3/3
f 8/9/4 7/8/4 6/10/4
f 6/10/4 7/8/4 5/5/4
f 1/11/5 7/7/5 2/4/5
f 2/4/5 7/7/5 8/3/5
f 2/2/6 8/12/6 4/4/6
f 4/4/6 8/12/6 6/13/6
f 9/14/1 10/15/1 11/16/1
f 11/16/1 10/15/1 12/17/1
f 13/18/2 11/16/2 14/19/2
f 14/19/2 11/16/2 12/20/2
f 15/21/3 9/14/3 13/18/3
f 13/18/3 9/14/3 11/16/3
f 16/22/4 15/21/4 14/23/4
f 14/23/4 15/21/4 13/18/4
f 10/15/6 16/24/6 12/17/6
f 12/17/6 16/24/6 14/25/6
f 17/26/1 18/27/1 19/28/1
f 19/28/1 18/27/1 20/29/1
f 21/30/2 19/28/2 22/31/2
f 22/31/2 19/28/2 20/32/2
f 23/33/3 17/26/3 21/30/3
f 21/30/3 17/26/3 19/28/3
f 24/34/4 23/33/4 22/35/4
f 22/35/4 23/33/4 21/30/4
f 17/36/5 23/32/5 18/37/5
f 18/37/5 23/32/5 24/28/5
f 18/27/6 24/38/6 20/29/6
f 20/29/6 24/38/6 22/39/6
f 25/40/1 26/41/1 27/42/1
f 27/42/1 26/41/1 28/43/1
f 29/44/2 27/42/2 30/45/2
f 30/45/2 27/42/2 28/46/2
f 31/47/3 25/40/3 29/44/3
f 29/44/3 25/40/3 27/42/3
f 32/48/4 31/47/4 30/49/4
f 30/49/4 31/47/4 29/44/4
f 25/50/5 31/46/5 26/51/5
f 26/51/5 31/46/5 32/42/5
f 26/41/6 32/52/6 28/43/6
f 28/43/6 32/52/6 30/53/6
f 33/54/1 34/55/1 35/56/1
f 35/56/1 34/55/1 36/57/1
f 37/58/2 35/56/2 38/9/2
f 38/9/2 35/56/2 36/59/2
f 39/60/3 33/54/3 37/58/3
f 37/58/3 33/54/3 35/56/3
f 33/61/5 39/59/5 34/62/5
f 34/62/5 39/59/5 40/56/5
f 34/55/6 40/63/6 36/57/6
f 36/57/6 40/63/6 38/64/6
f 41/65/7 42/66/7 43/67/7
f 43/67/7 42/66/7 44/68/7
f 45/69/2 43/67/2 46/70/2
f 46/70/2 43/67/2 44/71/2
f 47/72/8 41/65/8 45/69/8
f 45/69/8 41/65/8 43/67/8
f 41/73/9 47/71/9 42/74/9
f 42/74/9 47/71/9 48/67/9
f 42/66/10 48/75/10 44/68/10
f 44/68/10 48/75/10 46/76/10
f 49/77/1 50/78/1 51/79/1
f 51/79/1 50/78/1 52/80/1
f 53/81/2 51/79/2 54/82/2
f 54/82/2 51/79/2 52/83/2
f 55/84/3 49/77/3 53/81/3
f 53/81/3 49/77/3 51/79/3
f 56/85/4 55/84/4 54/86/4
f 54/86/4 55/84/4 53/81/4
f 50/78/6 56/87/6 52/80/6
f 52/80/6 56/87/6 54/88/6
f 57/89/4 58/90/4 59/91/4
f 59/91/4 58/90/4 60/92/4
f 61/93/2 59/91/2 62/94/2
f 62/94/2 59/91/2 60/95/2
f 63/96/6 57/89/6 61/93/6
f 61/93/6 57/89/6 59/91/6
f 64/97/1 63/96/1 62/98/1
f 62/98/1 63/96/1 61/93/1
f 57/99/5 63/95/5 58/100/5
f 58/100/5 63/95/5 64/91/5
f 58/90/3 64/101/3 60/92/3
f 60/92/3 64/101/3 62/102/3
f 65/103/4 66/104/4 67/105/4
f 67/105/4 66/104/4 68/106/4
f 69/107/5 67/105/5 70/108/5
f 70/108/5 67/105/5 68/109/5
f 71/110/3 65/103/3 69/107/3
f 69/107/3 65/103/3 67/105/3
f 65/111/2 71/109/2 66/112/2
f 66/112/2 71/109/2 72/105/2
f 66/104/6 72/113/6 68/106/6
f 68/106/6 72/113/6 70/114/6
f 73/115/1 74/116/1 75/117/1
f 75/117/1 74/116/1 76/118/1
f 77/119/2 75/117/2 78/120/2
f 78/120/2 75/117/2 76/121/2
f 79/122/3 73/115/3 77/119/3
f 77/119/3 73/115/3 75/117/3
f 80/123/4 79/122/4 78/124/4
f 78/124/4 79/122/4 77/119/4
f 73/125/5 79/121/5 74/126/5
f 74/126/5 79/121/5 80/117/5
f 16/127/1 81/128/1 73/129/1
f 73/129/1 81/128/1 82/130/1
f 83/131/3 16/127/3 79/132/3
f 79/132/3 16/127/3 73/129/3
f 81/128/6 50/133/6 82/130/6
f 82/130/6 50/133/6 84/134/6
f 53/79/1 55/77/1 54/80/1
f 54/80/1 55/77/1 56/78/1
f 56/82/2 55/81/2 50/83/2
f 50/83/2 55/81/2 49/79/2
f 54/81/3 56/84/3 52/79/3
f 52/79/3 56/84/3 50/77/3
f 52/86/4 50/85/4 51/81/4
f 51/81/4 50/85/4 49/84/4
f 52/135/5 51/136/5 54/79/5
f 54/79/5 51/136/5 53/83/5
f 51/80/6 49/78/6 53/88/6
f 53/88/6 49/78/6 55/87/6
f 13/16/1 15/14/1 14/17/1
f 14/17/1 15/14/1 16/15/1
f 16/19/2 15/18/2 10/20/2
f 10/20/2 15/18/2 9/16/2
f 14/18/3 16/21/3 12/16/3
f 12/16/3 16/21/3 10/14/3
f 12/23/4 10/22/4 11/18/4
f 11/18/4 10/22/4 9/21/4
f 12/137/5 11/138/5 14/16/5
f 14/16/5 11/138/5 13/20/5
f 11/17/6 9/15/6 13/25/6
f 13/25/6 9/15/6 15/24/6

