#Model generated with Minecraft Model Studio

#Number of verticies: 68
#Number of texture coordinates: 115
#Number of normals: 6
#Number of groups: 4

#Verticies
v 0.5 0 0.5
v 0.5 0 -0.5
v 0.5 0.0625 0.5
v 0.5 0.0625 -0.5
v -0.5 0.0625 0.5
v -0.5 0.0625 -0.5
v -0.5 0 0.5
v -0.5 0 -0.5
v 0.4375 0.0625 -0.125
v 0.4375 0.0625 -0.4375
v 0.4375 0.4375 -0.125
v 0.4375 0.4375 -0.4375
v -0.4375 0.4375 -0.125
v -0.4375 0.4375 -0.4375
v -0.4375 0.0625 -0.125
v -0.4375 0.0625 -0.4375
v 0.28125 0.4375 -0.0625
v 0.28125 0.4375 -0.5
v 0.28125 0.6875 -0.0625
v 0.28125 0.6875 -0.5
v 0.03125 0.6875 -0.0625
v 0.03125 0.6875 -0.5
v 0.03125 0.4375 -0.0625
v 0.03125 0.4375 -0.5
v 0 0.0625 0.3125
v 0 0.0625 0.1875
v 0 0.625 0.3125
v 0 0.625 0.1875
v -0.125 0.625 0.3125
v -0.125 0.625 0.1875
v -0.125 0.0625 0.3125
v -0.125 0.0625 0.1875
v -0.3125 0.4375 0.375
v -0.3125 0.4375 0.125
v -0.3125 0.6875 0.375
v -0.3125 0.6875 0.125
v -0.5 0.6875 0.375
v -0.5 0.6875 0.125
v -0.5 0.4375 0.375
v -0.5 0.4375 0.125
v -0.3125 0.0625 0.375
v -0.3125 0.0625 0.125
v -0.5 0.0625 0.375
v -0.5 0.0625 0.125
v 0.125 0.75 0.0625
v 0.125 0.75 0.4375
v 0.125 0.375 0.0625
v 0.125 0.375 0.4375
v 0 0.375 0.0625
v 0 0.375 0.4375
v 0 0.75 0.0625
v 0 0.75 0.4375
v -0.3125 0.53125 0.21875
v -0.125 0.53125 0.21875
v -0.3125 0.53125 0.28125
v -0.125 0.53125 0.28125
v -0.3125 0.59375 0.21875
v -0.125 0.59375 0.21875
v -0.125 0.59375 0.28125
v -0.3125 0.59375 0.28125
v 0.1875 0.59375 -0.375
v 0.1875 0.59375 0.1875
v 0.1875 0.53125 -0.375
v 0.1875 0.53125 0.1875
v 0.125 0.53125 -0.375
v 0.125 0.53125 0.1875
v 0.125 0.59375 -0.375
v 0.125 0.59375 0.1875

#Texture Coordinates
vt 0.5 0.734375
vt 0.75 0.734375
vt 0.5 0.75
vt 0.75 0.75
vt 0.25 0.75
vt 0.25 1
vt 0.5 1
vt 0.25 0.734375
vt 0 0.734375
vt 0 0.75
vt 0.75 1
vt 1 0.734375
vt 1 0.75
vt 0.296875 0.546875
vt 0.375 0.546875
vt 0.296875 0.640625
vt 0.375 0.640625
vt 0.078125 0.640625
vt 0.078125 0.71875
vt 0.296875 0.71875
vt 0.078125 0.546875
vt 0 0.546875
vt 0 0.640625
vt 0.59375 0.546875
vt 0.59375 0.640625
vt 0.171875 0.359375
vt 0.28125 0.359375
vt 0.171875 0.421875
vt 0.28125 0.421875
vt 0.109375 0.421875
vt 0.109375 0.53125
vt 0.171875 0.53125
vt 0.109375 0.359375
vt 0 0.359375
vt 0 0.421875
vt 0.234375 0.53125
vt 0.234375 0.421875
vt 0.34375 0.359375
vt 0.34375 0.421875
vt 0.828125 0.765625
vt 0.859375 0.765625
vt 0.828125 0.90625
vt 0.859375 0.90625
vt 0.796875 0.90625
vt 0.796875 0.9375
vt 0.828125 0.9375
vt 0.796875 0.765625
vt 0.765625 0.765625
vt 0.765625 0.90625
vt 0.890625 0.765625
vt 0.890625 0.90625
vt 0.109375 0.21875
vt 0.171875 0.21875
vt 0.109375 0.28125
vt 0.171875 0.28125
vt 0.0625 0.28125
vt 0.0625 0.34375
vt 0.109375 0.34375
vt 0.0625 0.21875
vt 0 0.21875
vt 0 0.28125
vt 0.15625 0.34375
vt 0.15625 0.28125
vt 0.21875 0.21875
vt 0.21875 0.28125
vt 0.109375 0.765625
vt 0.171875 0.765625
vt 0.109375 0.859375
vt 0.171875 0.859375
vt 0.0625 0.765625
vt 0.0625 0.859375
vt 0 0.765625
vt 0 0.859375
vt 0.21875 0.765625
vt 0.21875 0.859375
vt 0.734375 0.53125
vt 0.828125 0.53125
vt 0.734375 0.625
vt 0.828125 0.625
vt 0.703125 0.625
vt 0.703125 0.71875
vt 0.734375 0.71875
vt 0.703125 0.53125
vt 0.609375 0.53125
vt 0.609375 0.625
vt 0.765625 0.71875
vt 0.765625 0.625
vt 0.859375 0.53125
vt 0.859375 0.625
vt 0.140625 0.890625
vt 0.1875 0.890625
vt 0.140625 0.90625
vt 0.1875 0.90625
vt 0.140625 0.875
vt 0.1875 0.875
vt 0.234375 0.90625
vt 0.234375 0.890625
vt 0.203125 0.875
vt 0.25 0.875
vt 0.203125 0.890625
vt 0.25 0.890625
vt 0.515625 0.375
vt 0.65625 0.375
vt 0.515625 0.390625
vt 0.65625 0.390625
vt 0.5 0.390625
vt 0.5 0.53125
vt 0.515625 0.53125
vt 0.5 0.375
vt 0.359375 0.375
vt 0.359375 0.390625
vt 0.53125 0.53125
vt 0.53125 0.390625
vt 0.671875 0.375
vt 0.671875 0.390625

#Normals
vn 1 0 0
vn 0 1 0
vn 0 0 1
vn -1 0 0
vn 0 -1 0
vn 0 0 -1

g root
#Number of faces: 0


g main
#Number of faces: 72

f 1/1/1 2/2/1 3/3/1
f 3/3/1 2/2/1 4/4/1
f 5/5/2 3/3/2 6/6/2
f 6/6/2 3/3/2 4/7/2
f 7/8/3 1/1/3 5/5/3
f 5/5/3 1/1/3 3/3/3
f 8/9/4 7/8/4 6/10/4
f 6/10/4 7/8/4 5/5/4
f 1/11/5 7/7/5 2/4/5
f 2/4/5 7/7/5 8/3/5
f 2/2/6 8/12/6 4/4/6
f 4/4/6 8/12/6 6/13/6
f 9/14/1 10/15/1 11/16/1
f 11/16/1 10/15/1 12/17/1
f 13/18/2 11/16/2 14/19/2
f 14/19/2 11/16/2 12/20/2
f 15/21/3 9/14/3 13/18/3
f 13/18/3 9/14/3 11/16/3
f 16/22/4 15/21/4 14/23/4
f 14/23/4 15/21/4 13/18/4
f 10/15/6 16/24/6 12/17/6
f 12/17/6 16/24/6 14/25/6
f 17/26/1 18/27/1 19/28/1
f 19/28/1 18/27/1 20/29/1
f 21/30/2 19/28/2 22/31/2
f 22/31/2 19/28/2 20/32/2
f 23/33/3 17/26/3 21/30/3
f 21/30/3 17/26/3 19/28/3
f 24/34/4 23/33/4 22/35/4
f 22/35/4 23/33/4 21/30/4
f 17/36/5 23/32/5 18/37/5
f 18/37/5 23/32/5 24/28/5
f 18/27/6 24/38/6 20/29/6
f 20/29/6 24/38/6 22/39/6
f 25/40/1 26/41/1 27/42/1
f 27/42/1 26/41/1 28/43/1
f 29/44/2 27/42/2 30/45/2
f 30/45/2 27/42/2 28/46/2
f 31/47/3 25/40/3 29/44/3
f 29/44/3 25/40/3 27/42/3
f 32/48/4 31/47/4 30/49/4
f 30/49/4 31/47/4 29/44/4
f 26/41/6 32/50/6 28/43/6
f 28/43/6 32/50/6 30/51/6
f 33/52/1 34/53/1 35/54/1
f 35/54/1 34/53/1 36/55/1
f 37/56/2 35/54/2 38/57/2
f 38/57/2 35/54/2 36/58/2
f 39/59/3 33/52/3 37/56/3
f 37/56/3 33/52/3 35/54/3
f 40/60/4 39/59/4 38/61/4
f 38/61/4 39/59/4 37/56/4
f 33/62/5 39/58/5 34/63/5
f 34/63/5 39/58/5 40/54/5
f 34/53/6 40/64/6 36/55/6
f 36/55/6 40/64/6 38/65/6
f 41/66/1 42/67/1 33/68/1
f 33/68/1 42/67/1 34/69/1
f 43/70/3 41/66/3 39/71/3
f 39/71/3 41/66/3 33/68/3
f 44/72/4 43/70/4 40/73/4
f 40/73/4 43/70/4 39/71/4
f 42/67/6 44/74/6 34/69/6
f 34/69/6 44/74/6 40/75/6
f 39/68/1 43/66/1 40/69/1
f 40/69/1 43/66/1 44/67/1
f 40/71/3 44/70/3 34/68/3
f 34/68/3 44/70/3 42/66/3
f 34/73/4 42/72/4 33/71/4
f 33/71/4 42/72/4 41/70/4
f 33/69/6 41/67/6 39/75/6
f 39/75/6 41/67/6 43/74/6

g wheel
#Number of faces: 20

f 45/76/1 46/77/1 47/78/1
f 47/78/1 46/77/1 48/79/1
f 49/80/5 47/78/5 50/81/5
f 50/81/5 47/78/5 48/82/5
f 51/83/6 45/76/6 49/80/6
f 49/80/6 45/76/6 47/78/6
f 52/84/4 51/83/4 50/85/4
f 50/85/4 51/83/4 49/80/4
f 45/86/2 51/82/2 46/87/2
f 46/87/2 51/82/2 52/78/2
f 46/77/3 52/88/3 48/79/3
f 48/79/3 52/88/3 50/89/3
f 53/90/5 54/91/5 55/92/5
f 55/92/5 54/91/5 56/93/5
f 57/94/6 58/95/6 53/90/6
f 53/90/6 58/95/6 54/91/6
f 58/96/2 57/93/2 59/97/2
f 59/97/2 57/93/2 60/91/2
f 59/98/3 60/99/3 56/100/3
f 56/100/3 60/99/3 55/101/3

g piston_arm
#Number of faces: 12

f 61/102/1 62/103/1 63/104/1
f 63/104/1 62/103/1 64/105/1
f 65/106/5 63/104/5 66/107/5
f 66/107/5 63/104/5 64/108/5
f 67/109/6 61/102/6 65/106/6
f 65/106/6 61/102/6 63/104/6
f 68/110/4 67/109/4 66/111/4
f 66/111/4 67/109/4 65/106/4
f 61/112/2 67/108/2 62/113/2
f 62/113/2 67/108/2 68/104/2
f 62/103/3 68/114/3 64/105/3
f 64/105/3 68/114/3 66/115/3

