#Model generated with Minecraft Model Studio

#Number of verticies: 40
#Number of texture coordinates: 49
#Number of normals: 7
#Number of groups: 3

#Verticies
v -0.5 0 -0.5
v -0.5 0 0.5
v -0.5 0.0625 -0.5
v -0.5 0.0625 0.5
v 0.5 0.0625 -0.5
v 0.5 0.0625 0.5
v 0.5 0 -0.5
v 0.5 0 0.5
v -0.4375 0.0625 -0.4375
v -0.4375 0.0625 0.4375
v -0.4375 1 -0.4375
v -0.4375 1 0.4375
v 0.4375 1 -0.4375
v 0.4375 1 0.4375
v 0.4375 0.0625 -0.4375
v 0.4375 0.0625 0.4375
v -0.375 1 -0.375
v -0.375 1 0.375
v -0.375 1.625 -0.375
v -0.375 1.625 0.375
v 0.375 1.625 -0.375
v 0.375 1.625 0.375
v 0.375 1 -0.375
v 0.375 1 0.375
v -0.25 1.625 -0.25
v -0.25 1.625 0.25
v -0.25 2 -0.25
v -0.25 2 0.25
v 0.25 2 -0.25
v 0.25 2 0.25
v 0.25 1.625 -0.25
v 0.25 1.625 0.25
v 0.4375 0 0.4375
v 0.4375 0.9375 0.4375
v 0.4375 0 -0.4375
v 0.4375 0.9375 -0.4375
v -0.4375 0.9375 -0.4375
v -0.4375 0.9375 0.4375
v -0.4375 0 -0.4375
v -0.4375 0 0.4375

#Texture Coordinates
vt 0.5 0.8229166269302368
vt 0.75 0.8229166269302368
vt 0.5 0.8333333134651184
vt 0.75 0.8333333134651184
vt 0.25 0.8333333134651184
vt 0.25 1
vt 0.5 1
vt 0.25 0.8229166269302368
vt 0 0.8229166269302368
vt 0 0.8333333134651184
vt 0.75 1
vt 1 0.8229166269302368
vt 1 0.8333333134651184
vt 0.4375 0.5104166865348816
vt 0.65625 0.5104166865348816
vt 0.4375 0.6666666865348816
vt 0.65625 0.6666666865348816
vt 0.21875 0.6666666865348816
vt 0.21875 0.8125
vt 0.4375 0.8125
vt 0.21875 0.5104166865348816
vt 0 0.5104166865348816
vt 0 0.6666666865348816
vt 0.875 0.5104166865348816
vt 0.875 0.6666666865348816
vt 0.375 0.2708333134651184
vt 0.5625 0.2708333134651184
vt 0.375 0.375
vt 0.5625 0.375
vt 0.1875 0.375
vt 0.1875 0.5
vt 0.375 0.5
vt 0.1875 0.2708333134651184
vt 0 0.2708333134651184
vt 0 0.375
vt 0.75 0.2708333134651184
vt 0.75 0.375
vt 0.703125 0.6770833730697632
vt 0.828125 0.6770833730697632
vt 0.703125 0.7395833730697632
vt 0.828125 0.7395833730697632
vt 0.578125 0.7395833730697632
vt 0.578125 0.8229166865348816
vt 0.703125 0.8229166865348816
vt 0.578125 0.6770833730697632
vt 0.453125 0.6770833730697632
vt 0.453125 0.7395833730697632
vt 0.953125 0.6770833730697632
vt 0.953125 0.7395833730697632

#Normals
vn -1 0 0
vn 0 1 0
vn 0 0 -1
vn 1 0 0
vn 0 -1 0
vn 0 0 1
vn 0 -0 -1

g root
#Number of faces: 0


g main
#Number of faces: 52

f 1/1/1 2/2/1 3/3/1
f 3/3/1 2/2/1 4/4/1
f 5/5/2 3/3/2 6/6/2
f 6/6/2 3/3/2 4/7/2
f 7/8/3 1/1/3 5/5/3
f 5/5/3 1/1/3 3/3/3
f 8/9/4 7/8/4 6/10/4
f 6/10/4 7/8/4 5/5/4
f 1/11/5 7/7/5 2/4/5
f 2/4/5 7/7/5 8/3/5
f 2/2/6 8/12/6 4/4/6
f 4/4/6 8/12/6 6/13/6
f 9/14/1 10/15/1 11/16/1
f 11/16/1 10/15/1 12/17/1
f 13/18/2 11/16/2 14/19/2
f 14/19/2 11/16/2 12/20/2
f 15/21/3 9/14/3 13/18/3
f 13/18/3 9/14/3 11/16/3
f 16/22/4 15/21/4 14/23/4
f 14/23/4 15/21/4 13/18/4
f 10/15/6 16/24/6 12/17/6
f 12/17/6 16/24/6 14/25/6
f 17/26/1 18/27/1 19/28/1
f 19/28/1 18/27/1 20/29/1
f 21/30/2 19/28/2 22/31/2
f 22/31/2 19/28/2 20/32/2
f 23/33/3 17/26/3 21/30/3
f 21/30/3 17/26/3 19/28/3
f 24/34/4 23/33/4 22/35/4
f 22/35/4 23/33/4 21/30/4
f 18/27/6 24/36/6 20/29/6
f 20/29/6 24/36/6 22/37/6
f 25/38/1 26/39/1 27/40/1
f 27/40/1 26/39/1 28/41/1
f 29/42/2 27/40/2 30/43/2
f 30/43/2 27/40/2 28/44/2
f 31/45/3 25/38/3 29/42/3
f 29/42/3 25/38/3 27/40/3
f 32/46/4 31/45/4 30/47/4
f 30/47/4 31/45/4 29/42/4
f 26/39/6 32/48/6 28/41/6
f 28/41/6 32/48/6 30/49/6
f 33/16/1 34/14/1 35/17/1
f 35/17/1 34/14/1 36/15/1
f 36/19/5 34/18/5 37/20/5
f 37/20/5 34/18/5 38/16/5
f 35/18/6 36/21/6 39/16/6
f 39/16/6 36/21/6 37/14/6
f 39/23/4 37/22/4 40/18/4
f 40/18/4 37/22/4 38/21/4
f 40/17/7 38/15/7 33/25/7
f 33/25/7 38/15/7 34/24/7

g particle_exhaust
#Number of faces: 0


