#Model generated with Minecraft Model Studio

#Number of verticies: 108
#Number of texture coordinates: 206
#Number of normals: 10
#Number of groups: 5

#Verticies
v 0.46875 0 0.46875
v 0.46875 0 -0.46875
v 0.46875 0.75 0.46875
v 0.46875 0.75 -0.46875
v -0.46875 0.75 0.46875
v -0.46875 0.75 -0.46875
v -0.46875 0 0.46875
v -0.46875 0 -0.46875
v 0.21875 0.75 0.21875
v 0.21875 0.75 -0.21875
v 0.21875 0.8125 0.21875
v 0.21875 0.8125 -0.21875
v -0.21875 0.8125 0.21875
v -0.21875 0.8125 -0.21875
v -0.21875 0.75 0.21875
v -0.21875 0.75 -0.21875
v 0.15625 0.0625 0.53125
v 0.15625 0.0625 -0.53125
v 0.15625 0.375 0.53125
v 0.15625 0.375 -0.53125
v 0.09375 0.375 0.53125
v 0.09375 0.375 -0.53125
v 0.09375 0.0625 0.53125
v 0.09375 0.0625 -0.53125
v -0.09375 0.0625 0.53125
v -0.09375 0.0625 -0.53125
v -0.09375 0.375 0.53125
v -0.09375 0.375 -0.53125
v -0.15625 0.375 0.53125
v -0.15625 0.375 -0.53125
v -0.15625 0.0625 0.53125
v -0.15625 0.0625 -0.53125
v 0.53125 0.0625 -0.09375
v 0.53125 0.0625 -0.15625
v 0.53125 0.375 -0.09375
v 0.53125 0.375 -0.15625
v -0.53125 0.375 -0.09375
v -0.53125 0.375 -0.15625
v -0.53125 0.0625 -0.09375
v -0.53125 0.0625 -0.15625
v 0.53125 0.0625 0.15625
v 0.53125 0.0625 0.09375
v 0.53125 0.375 0.15625
v 0.53125 0.375 0.09375
v -0.53125 0.375 0.15625
v -0.53125 0.375 0.09375
v -0.53125 0.0625 0.15625
v -0.53125 0.0625 0.09375
v 0.4375 0.46875 1.3125
v 0.4375 0.46875 0.4375
v 0.4375 0.53125 1.3125
v 0.4375 0.53125 0.4375
v -0.4375 0.53125 1.3125
v -0.4375 0.53125 0.4375
v -0.4375 0.46875 1.3125
v -0.4375 0.46875 0.4375
v -0.375 0.53125 1.25
v -0.375 0.53125 0.4375
v -0.375 0.59375 1.25
v -0.375 0.59375 0.4375
v -0.4375 0.59375 1.25
v -0.4375 0.59375 0.4375
v -0.4375 0.53125 1.25
v 0.4375 0.53125 0.5
v 0.4375 0.59375 1.3125
v 0.4375 0.59375 0.5
v 0.375 0.59375 1.3125
v 0.375 0.59375 0.5
v 0.375 0.53125 1.3125
v 0.375 0.53125 0.5
v 0.375 0.53125 1.25
v 0.375 0.59375 1.25
v -0.4375 0.59375 1.3125
v 0.4375 0.59375 0.4375
v -0.375 0.59375 0.5
v -0.375 0.53125 0.5
v 0.0625 0.43765226006507874 1.2856097221374512
v 0.0625 0.37661534547805786 0.4127412438392639
v 0.0625 0.5 1.28125
v 0.0625 0.4389630854129791 0.40838146209716797
v -0.0625 0.5 1.28125
v -0.0625 0.4389630854129791 0.40838146209716797
v -0.0625 0.43765226006507874 1.2856097221374512
v -0.0625 0.37661534547805786 0.4127412438392639
v 0.15625 0.75 0.15625
v 0.15625 0.75 -0.15625
v 0.15625 1.0625 0.15625
v 0.15625 1.0625 -0.15625
v -0.15625 1.0625 0.15625
v -0.15625 1.0625 -0.15625
v -0.15625 0.75 0.15625
v -0.15625 0.75 -0.15625
v 0.09375 0.125 0.5
v 0.09375 0.125 -0.5
v 0.09375 0.1875 0.5
v 0.09375 0.1875 -0.5
v -0.09375 0.1875 0.5
v -0.09375 0.1875 -0.5
v -0.09375 0.125 0.5
v -0.09375 0.125 -0.5
v 0.5 0.125 0.09375
v 0.5 0.125 -0.09375
v 0.5 0.1875 0.09375
v 0.5 0.1875 -0.09375
v -0.5 0.1875 0.09375
v -0.5 0.1875 -0.09375
v -0.5 0.125 0.09375
v -0.5 0.125 -0.09375

#Texture Coordinates
vt 0.765625 0.7890625
vt 0.8828125 0.7890625
vt 0.765625 0.8828125
vt 0.8828125 0.8828125
vt 0.6484375 0.8828125
vt 0.6484375 1
vt 0.765625 1
vt 0.6484375 0.7890625
vt 0.53125 0.7890625
vt 0.53125 0.8828125
vt 0.8828125 1
vt 1 0.7890625
vt 1 0.8828125
vt 0.890625 0.328125
vt 0.9453125 0.328125
vt 0.890625 0.3359375
vt 0.9453125 0.3359375
vt 0.8359375 0.3359375
vt 0.8359375 0.390625
vt 0.890625 0.390625
vt 0.8359375 0.328125
vt 0.78125 0.328125
vt 0.78125 0.3359375
vt 0.9453125 0.390625
vt 1 0.328125
vt 1 0.3359375
vt 0.5703125 0
vt 0.703125 0
vt 0.5703125 0.0390625
vt 0.703125 0.0390625
vt 0.5625 0.0390625
vt 0.5625 0.171875
vt 0.5703125 0.171875
vt 0.5625 0
vt 0.4296875 0
vt 0.4296875 0.0390625
vt 0.578125 0.171875
vt 0.578125 0.0390625
vt 0.7109375 0
vt 0.7109375 0.0390625
vt 0.5703125 0.1796875
vt 0.703125 0.1796875
vt 0.5703125 0.21875
vt 0.703125 0.21875
vt 0.5625 0.21875
vt 0.5625 0.3515625
vt 0.5703125 0.3515625
vt 0.5625 0.1796875
vt 0.4296875 0.1796875
vt 0.4296875 0.21875
vt 0.578125 0.3515625
vt 0.578125 0.21875
vt 0.7109375 0.1796875
vt 0.7109375 0.21875
vt 0.859375 0.1328125
vt 0.8671875 0.1328125
vt 0.859375 0.171875
vt 0.8671875 0.171875
vt 0.7265625 0.171875
vt 0.7265625 0.1796875
vt 0.859375 0.1796875
vt 0.7265625 0.1328125
vt 0.71875 0.1328125
vt 0.71875 0.171875
vt 0.9921875 0.1796875
vt 0.9921875 0.171875
vt 1 0.1328125
vt 1 0.171875
vt 0.859375 0.1875
vt 0.8671875 0.1875
vt 0.859375 0.2265625
vt 0.8671875 0.2265625
vt 0.7265625 0.2265625
vt 0.7265625 0.234375
vt 0.859375 0.234375
vt 0.7265625 0.1875
vt 0.71875 0.1875
vt 0.71875 0.2265625
vt 0.9921875 0.234375
vt 0.9921875 0.2265625
vt 1 0.1875
vt 1 0.2265625
vt 0.78125 0.6640625
vt 0.890625 0.6640625
vt 0.78125 0.671875
vt 0.890625 0.671875
vt 0.671875 0.671875
vt 0.671875 0.78125
vt 0.78125 0.78125
vt 0.671875 0.6640625
vt 0.5625 0.6640625
vt 0.5625 0.671875
vt 0.890625 0.78125
vt 1 0.6640625
vt 1 0.671875
vt 0.890625 0.546875
vt 0.9921875 0.546875
vt 0.890625 0.5546875
vt 0.9921875 0.5546875
vt 0.8828125 0.5546875
vt 0.8828125 0.65625
vt 0.890625 0.65625
vt 0.8828125 0.546875
vt 0.78125 0.546875
vt 0.78125 0.5546875
vt 0.8984375 0.65625
vt 0.8984375 0.5546875
vt 1 0.546875
vt 1 0.5546875
vt 0.6640625 0.5234375
vt 0.765625 0.5234375
vt 0.6640625 0.53125
vt 0.765625 0.53125
vt 0.65625 0.53125
vt 0.65625 0.6328125
vt 0.6640625 0.6328125
vt 0.65625 0.5234375
vt 0.5546875 0.5234375
vt 0.5546875 0.53125
vt 0.671875 0.6328125
vt 0.671875 0.53125
vt 0.7734375 0.5234375
vt 0.7734375 0.53125
vt 0.6640625 0.640625
vt 0.671875 0.640625
vt 0.6640625 0.6484375
vt 0.671875 0.6484375
vt 0.5625 0.6484375
vt 0.5625 0.65625
vt 0.6640625 0.65625
vt 0.5625 0.640625
vt 0.5546875 0.640625
vt 0.5546875 0.6484375
vt 0.765625 0.65625
vt 0.765625 0.6484375
vt 0.7734375 0.640625
vt 0.7734375 0.6484375
vt 0.890625 0.5234375
vt 0.8984375 0.5234375
vt 0.890625 0.53125
vt 0.8984375 0.53125
vt 0.7890625 0.53125
vt 0.7890625 0.5390625
vt 0.890625 0.5390625
vt 0.7890625 0.5234375
vt 0.78125 0.5234375
vt 0.78125 0.53125
vt 0.9921875 0.5390625
vt 0.9921875 0.53125
vt 1 0.5234375
vt 1 0.53125
vt 0.875 0.3984375
vt 0.984375 0.3984375
vt 0.875 0.40625
vt 0.984375 0.40625
vt 0.859375 0.40625
vt 0.859375 0.515625
vt 0.875 0.515625
vt 0.859375 0.3984375
vt 0.75 0.3984375
vt 0.75 0.40625
vt 0.890625 0.515625
vt 0.890625 0.40625
vt 1 0.3984375
vt 1 0.40625
vt 0.921875 0.2421875
vt 0.9609375 0.2421875
vt 0.921875 0.28125
vt 0.9609375 0.28125
vt 0.8828125 0.28125
vt 0.8828125 0.3203125
vt 0.921875 0.3203125
vt 0.8828125 0.2421875
vt 0.84375 0.2421875
vt 0.84375 0.28125
vt 0.9609375 0.3203125
vt 1 0.2421875
vt 1 0.28125
vt 0.375 0.8671875
vt 0.5 0.8671875
vt 0.375 0.875
vt 0.5 0.875
vt 0.3515625 0.875
vt 0.3515625 1
vt 0.375 1
vt 0.3515625 0.8671875
vt 0.2265625 0.8671875
vt 0.2265625 0.875
vt 0.3984375 1
vt 0.3984375 0.875
vt 0.5234375 0.8671875
vt 0.5234375 0.875
vt 0.59375 0.359375
vt 0.6171875 0.359375
vt 0.59375 0.3671875
vt 0.6171875 0.3671875
vt 0.46875 0.3671875
vt 0.46875 0.390625
vt 0.59375 0.390625
vt 0.46875 0.359375
vt 0.4453125 0.359375
vt 0.4453125 0.3671875
vt 0.71875 0.390625
vt 0.71875 0.3671875
vt 0.7421875 0.359375
vt 0.7421875 0.3671875

#Normals
vn 1 0 0
vn 0 1 0
vn 0 0 1
vn -1 0 0
vn 0 -1 0
vn 0 0 -1
vn 0 0.9975640773773193 -0.06975647062063217
vn 0 0.06975647062063217 0.9975640773773193
vn 0 -0.9975640773773193 0.06975647062063217
vn 0 -0.06975647062063217 -0.9975640773773193

g root
#Number of faces: 72

f 1/1/1 2/2/1 3/3/1
f 3/3/1 2/2/1 4/4/1
f 5/5/2 3/3/2 6/6/2
f 6/6/2 3/3/2 4/7/2
f 7/8/3 1/1/3 5/5/3
f 5/5/3 1/1/3 3/3/3
f 8/9/4 7/8/4 6/10/4
f 6/10/4 7/8/4 5/5/4
f 1/11/5 7/7/5 2/4/5
f 2/4/5 7/7/5 8/3/5
f 2/2/6 8/12/6 4/4/6
f 4/4/6 8/12/6 6/13/6
f 9/14/1 10/15/1 11/16/1
f 11/16/1 10/15/1 12/17/1
f 13/18/2 11/16/2 14/19/2
f 14/19/2 11/16/2 12/20/2
f 15/21/3 9/14/3 13/18/3
f 13/18/3 9/14/3 11/16/3
f 16/22/4 15/21/4 14/23/4
f 14/23/4 15/21/4 13/18/4
f 9/24/5 15/20/5 10/17/5
f 10/17/5 15/20/5 16/16/5
f 10/15/6 16/25/6 12/17/6
f 12/17/6 16/25/6 14/26/6
f 17/27/1 18/28/1 19/29/1
f 19/29/1 18/28/1 20/30/1
f 21/31/2 19/29/2 22/32/2
f 22/32/2 19/29/2 20/33/2
f 23/34/3 17/27/3 21/31/3
f 21/31/3 17/27/3 19/29/3
f 24/35/4 23/34/4 22/36/4
f 22/36/4 23/34/4 21/31/4
f 17/37/5 23/33/5 18/38/5
f 18/38/5 23/33/5 24/29/5
f 18/28/6 24/39/6 20/30/6
f 20/30/6 24/39/6 22/40/6
f 25/41/1 26/42/1 27/43/1
f 27/43/1 26/42/1 28/44/1
f 29/45/2 27/43/2 30/46/2
f 30/46/2 27/43/2 28/47/2
f 31/48/3 25/41/3 29/45/3
f 29/45/3 25/41/3 27/43/3
f 32/49/4 31/48/4 30/50/4
f 30/50/4 31/48/4 29/45/4
f 25/51/5 31/47/5 26/52/5
f 26/52/5 31/47/5 32/43/5
f 26/42/6 32/53/6 28/44/6
f 28/44/6 32/53/6 30/54/6
f 33/55/1 34/56/1 35/57/1
f 35/57/1 34/56/1 36/58/1
f 37/59/2 35/57/2 38/60/2
f 38/60/2 35/57/2 36/61/2
f 39/62/3 33/55/3 37/59/3
f 37/59/3 33/55/3 35/57/3
f 40/63/4 39/62/4 38/64/4
f 38/64/4 39/62/4 37/59/4
f 33/65/5 39/61/5 34/66/5
f 34/66/5 39/61/5 40/57/5
f 34/56/6 40/67/6 36/58/6
f 36/58/6 40/67/6 38/68/6
f 41/69/1 42/70/1 43/71/1
f 43/71/1 42/70/1 44/72/1
f 45/73/2 43/71/2 46/74/2
f 46/74/2 43/71/2 44/75/2
f 47/76/3 41/69/3 45/73/3
f 45/73/3 41/69/3 43/71/3
f 48/77/4 47/76/4 46/78/4
f 46/78/4 47/76/4 45/73/4
f 41/79/5 47/75/5 42/80/5
f 42/80/5 47/75/5 48/71/5
f 42/70/6 48/81/6 44/72/6
f 44/72/6 48/81/6 46/82/6

g tray
#Number of faces: 60

f 49/83/1 50/84/1 51/85/1
f 51/85/1 50/84/1 52/86/1
f 53/87/2 51/85/2 54/88/2
f 54/88/2 51/85/2 52/89/2
f 55/90/3 49/83/3 53/87/3
f 53/87/3 49/83/3 51/85/3
f 56/91/4 55/90/4 54/92/4
f 54/92/4 55/90/4 53/87/4
f 49/93/5 55/89/5 50/86/5
f 50/86/5 55/89/5 56/85/5
f 50/84/6 56/94/6 52/86/6
f 52/86/6 56/94/6 54/95/6
f 57/96/1 58/97/1 59/98/1
f 59/98/1 58/97/1 60/99/1
f 61/100/2 59/98/2 62/101/2
f 62/101/2 59/98/2 60/102/2
f 63/103/3 57/96/3 61/100/3
f 61/100/3 57/96/3 59/98/3
f 54/104/4 63/103/4 62/105/4
f 62/105/4 63/103/4 61/100/4
f 57/106/5 63/102/5 58/107/5
f 58/107/5 63/102/5 54/98/5
f 58/97/6 54/108/6 60/99/6
f 60/99/6 54/108/6 62/109/6
f 51/110/1 64/111/1 65/112/1
f 65/112/1 64/111/1 66/113/1
f 67/114/2 65/112/2 68/115/2
f 68/115/2 65/112/2 66/116/2
f 69/117/3 51/110/3 67/114/3
f 67/114/3 51/110/3 65/112/3
f 70/118/4 69/117/4 68/119/4
f 68/119/4 69/117/4 67/114/4
f 51/120/5 69/116/5 64/121/5
f 64/121/5 69/116/5 70/112/5
f 64/111/6 70/122/6 66/113/6
f 66/113/6 70/122/6 68/123/6
f 69/124/1 71/125/1 67/126/1
f 67/126/1 71/125/1 72/127/1
f 73/128/2 67/126/2 61/129/2
f 61/129/2 67/126/2 72/130/2
f 53/131/3 69/124/3 73/128/3
f 73/128/3 69/124/3 67/126/3
f 63/132/4 53/131/4 61/133/4
f 61/133/4 53/131/4 73/128/4
f 69/134/5 53/130/5 71/135/5
f 71/135/5 53/130/5 63/126/5
f 71/125/6 63/136/6 72/127/6
f 72/127/6 63/136/6 61/137/6
f 64/138/1 52/139/1 66/140/1
f 66/140/1 52/139/1 74/141/1
f 75/142/2 66/140/2 60/143/2
f 60/143/2 66/140/2 74/144/2
f 76/145/3 64/138/3 75/142/3
f 75/142/3 64/138/3 66/140/3
f 58/146/4 76/145/4 60/147/4
f 60/147/4 76/145/4 75/142/4
f 64/148/5 76/144/5 52/149/5
f 52/149/5 76/144/5 58/140/5
f 52/139/6 58/150/6 74/141/6
f 74/141/6 58/150/6 60/151/6

g arm
#Number of faces: 12

f 77/152/1 78/153/1 79/154/1
f 79/154/1 78/153/1 80/155/1
f 81/156/7 79/154/7 82/157/7
f 82/157/7 79/154/7 80/158/7
f 83/159/8 77/152/8 81/156/8
f 81/156/8 77/152/8 79/154/8
f 84/160/4 83/159/4 82/161/4
f 82/161/4 83/159/4 81/156/4
f 77/162/9 83/158/9 78/163/9
f 78/163/9 83/158/9 84/154/9
f 78/153/10 84/164/10 80/155/10
f 80/155/10 84/164/10 82/165/10

g piston
#Number of faces: 12

f 85/166/1 86/167/1 87/168/1
f 87/168/1 86/167/1 88/169/1
f 89/170/2 87/168/2 90/171/2
f 90/171/2 87/168/2 88/172/2
f 91/173/3 85/166/3 89/170/3
f 89/170/3 85/166/3 87/168/3
f 92/174/4 91/173/4 90/175/4
f 90/175/4 91/173/4 89/170/4
f 85/176/5 91/172/5 86/169/5
f 86/169/5 91/172/5 92/168/5
f 86/167/6 92/177/6 88/169/6
f 88/169/6 92/177/6 90/178/6

g worktable
#Number of faces: 24

f 93/179/1 94/180/1 95/181/1
f 95/181/1 94/180/1 96/182/1
f 97/183/2 95/181/2 98/184/2
f 98/184/2 95/181/2 96/185/2
f 99/186/3 93/179/3 97/183/3
f 97/183/3 93/179/3 95/181/3
f 100/187/4 99/186/4 98/188/4
f 98/188/4 99/186/4 97/183/4
f 93/189/5 99/185/5 94/190/5
f 94/190/5 99/185/5 100/181/5
f 94/180/6 100/191/6 96/182/6
f 96/182/6 100/191/6 98/192/6
f 101/193/1 102/194/1 103/195/1
f 103/195/1 102/194/1 104/196/1
f 105/197/2 103/195/2 106/198/2
f 106/198/2 103/195/2 104/199/2
f 107/200/3 101/193/3 105/197/3
f 105/197/3 101/193/3 103/195/3
f 108/201/4 107/200/4 106/202/4
f 106/202/4 107/200/4 105/197/4
f 101/203/5 107/199/5 102/204/5
f 102/204/5 107/199/5 108/195/5
f 102/194/6 108/205/6 104/196/6
f 104/196/6 108/205/6 106/206/6

