#Model generated with Minecraft Model Studio

#Number of verticies: 72
#Number of texture coordinates: 110
#Number of normals: 6
#Number of groups: 2

#Verticies
v -0.5 0 0.5
v 0.5 0 0.5
v -0.5 0.0625 0.5
v 0.5 0.0625 0.5
v -0.5 0.0625 -0.5
v 0.5 0.0625 -0.5
v -0.5 0 -0.5
v 0.5 0 -0.5
v -0.4375 0.0625 0.4375
v 0.4375 0.0625 0.4375
v -0.4375 0.4375 0.4375
v 0.4375 0.4375 0.4375
v -0.4375 0.4375 -0.4375
v 0.4375 0.4375 -0.4375
v -0.4375 0.0625 -0.4375
v 0.4375 0.0625 -0.4375
v -0.15625 0.375 -0.375
v 0.15625 0.375 -0.375
v -0.15625 0.6875 -0.375
v 0.15625 0.6875 -0.375
v -0.15625 0.6875 -0.5
v 0.15625 0.6875 -0.5
v -0.15625 0.375 -0.5
v 0.15625 0.375 -0.5
v -0.0625 0.4375 -0.25
v 0.0625 0.4375 -0.25
v -0.0625 0.625 -0.25
v 0.0625 0.625 -0.25
v -0.0625 0.625 -0.375
v 0.0625 0.625 -0.375
v -0.0625 0.4375 -0.375
v 0.0625 0.4375 -0.375
v -0.25 0.4375 0.375
v -0.25 0.0625 0.375
v 0.25 0.4375 0.375
v 0.25 0.0625 0.375
v 0.25 0.0625 0.4375
v -0.25 0.0625 0.4375
v 0.25 0.4375 0.4375
v -0.25 0.4375 0.4375
v 0.0625 0.4375 0.40625
v 0.375 0.4375 0.40625
v 0.0625 1 0.40625
v 0.375 1 0.40625
v 0.0625 1 -0.15625
v 0.375 1 -0.15625
v 0.0625 0.4375 -0.15625
v 0.375 0.4375 -0.15625
v 0.375 0.375 0.15625
v 0.5 0.375 0.15625
v 0.375 0.6875 0.15625
v 0.5 0.6875 0.15625
v 0.375 0.6875 -0.15625
v 0.5 0.6875 -0.15625
v 0.5 0.375 -0.15625
v 0.375 0.375 -0.15625
v -0.375 0.4375 0.3125
v -0.0625 0.4375 0.3125
v -0.375 0.75 0.3125
v -0.0625 0.75 0.3125
v -0.375 0.75 -0.3125
v -0.0625 0.75 -0.3125
v -0.375 0.4375 -0.3125
v -0.0625 0.4375 -0.3125
v -0.5 0.375 0.15625
v -0.375 0.375 0.15625
v -0.5 0.6875 0.15625
v -0.375 0.6875 0.15625
v -0.5 0.6875 -0.15625
v -0.375 0.6875 -0.15625
v -0.5 0.375 -0.15625
v -0.375 0.375 -0.15625

#Texture Coordinates
vt 0.5 0.734375
vt 0.75 0.734375
vt 0.5 0.75
vt 0.75 0.75
vt 0.25 0.75
vt 0.25 1
vt 0.5 1
vt 0.25 0.734375
vt 0 0.734375
vt 0 0.75
vt 0.75 1
vt 1 0.734375
vt 1 0.75
vt 0.4375 0.40625
vt 0.65625 0.40625
vt 0.4375 0.5
vt 0.65625 0.5
vt 0.21875 0.5
vt 0.21875 0.71875
vt 0.4375 0.71875
vt 0.21875 0.40625
vt 0 0.40625
vt 0 0.5
vt 0.875 0.40625
vt 0.875 0.5
vt 0.109375 0.84375
vt 0.1875 0.84375
vt 0.109375 0.921875
vt 0.1875 0.921875
vt 0.078125 0.921875
vt 0.078125 1
vt 0.109375 1
vt 0.078125 0.84375
vt 0 0.84375
vt 0 0.921875
vt 0.140625 1
vt 0.140625 0.921875
vt 0.21875 0.84375
vt 0.21875 0.921875
vt 0.0625 0.75
vt 0.09375 0.75
vt 0.0625 0.796875
vt 0.09375 0.796875
vt 0.03125 0.796875
vt 0.03125 0.828125
vt 0.0625 0.828125
vt 0.03125 0.75
vt 0.125 0.75
vt 0.125 0.796875
vt 0.484375 0.609375
vt 0.484375 0.515625
vt 0.609375 0.609375
vt 0.609375 0.515625
vt 0.46875 0.734375
vt 0.46875 0.609375
vt 0.484375 0.734375
vt 0.46875 0.515625
vt 0.5 0.609375
vt 0.625 0.609375
vt 0.625 0.515625
vt 0.21875 0.171875
vt 0.296875 0.171875
vt 0.21875 0.3125
vt 0.296875 0.3125
vt 0.078125 0.3125
vt 0.078125 0.390625
vt 0.21875 0.390625
vt 0.078125 0.171875
vt 0 0.171875
vt 0 0.3125
vt 0.4375 0.171875
vt 0.4375 0.3125
vt 0.109375 0.609375
vt 0.140625 0.609375
vt 0.109375 0.6875
vt 0.140625 0.6875
vt 0.03125 0.6875
vt 0.03125 0.71875
vt 0.109375 0.71875
vt 0 0.609375
vt 0.03125 0.609375
vt 0 0.6875
vt 0.1875 0.71875
vt 0.1875 0.6875
vt 0.21875 0.609375
vt 0.21875 0.6875
vt 0.234375 0
vt 0.3125 0
vt 0.234375 0.078125
vt 0.3125 0.078125
vt 0.078125 0.078125
vt 0.078125 0.15625
vt 0.234375 0.15625
vt 0.078125 0
vt 0 0
vt 0 0.078125
vt 0.46875 0
vt 0.46875 0.078125
vt 0.875 0.890625
vt 0.90625 0.890625
vt 0.875 0.96875
vt 0.90625 0.96875
vt 0.796875 0.96875
vt 0.796875 1
vt 0.875 1
vt 0.796875 0.890625
vt 0.765625 0.890625
vt 0.765625 0.96875
vt 0.953125 1
vt 0.953125 0.96875

#Normals
vn 0.0000000000000002220446049250313 0 1
vn 0 1 0
vn -1 0 0.0000000000000002220446049250313
vn -0.0000000000000002220446049250313 0 -1
vn 0 -1 0
vn 1 0 -0.0000000000000002220446049250313

g root
#Number of faces: 0


g main
#Number of faces: 92

f 1/1/1 2/2/1 3/3/1
f 3/3/1 2/2/1 4/4/1
f 5/5/2 3/3/2 6/6/2
f 6/6/2 3/3/2 4/7/2
f 7/8/3 1/1/3 5/5/3
f 5/5/3 1/1/3 3/3/3
f 8/9/4 7/8/4 6/10/4
f 6/10/4 7/8/4 5/5/4
f 1/11/5 7/7/5 2/4/5
f 2/4/5 7/7/5 8/3/5
f 2/2/6 8/12/6 4/4/6
f 4/4/6 8/12/6 6/13/6
f 9/14/1 10/15/1 11/16/1
f 11/16/1 10/15/1 12/17/1
f 13/18/2 11/16/2 14/19/2
f 14/19/2 11/16/2 12/20/2
f 15/21/3 9/14/3 13/18/3
f 13/18/3 9/14/3 11/16/3
f 16/22/4 15/21/4 14/23/4
f 14/23/4 15/21/4 13/18/4
f 10/15/6 16/24/6 12/17/6
f 12/17/6 16/24/6 14/25/6
f 17/26/1 18/27/1 19/28/1
f 19/28/1 18/27/1 20/29/1
f 21/30/2 19/28/2 22/31/2
f 22/31/2 19/28/2 20/32/2
f 23/33/3 17/26/3 21/30/3
f 21/30/3 17/26/3 19/28/3
f 24/34/4 23/33/4 22/35/4
f 22/35/4 23/33/4 21/30/4
f 17/36/5 23/32/5 18/37/5
f 18/37/5 23/32/5 24/28/5
f 18/27/6 24/38/6 20/29/6
f 20/29/6 24/38/6 22/39/6
f 25/40/1 26/41/1 27/42/1
f 27/42/1 26/41/1 28/43/1
f 29/44/2 27/42/2 30/45/2
f 30/45/2 27/42/2 28/46/2
f 31/47/3 25/40/3 29/44/3
f 29/44/3 25/40/3 27/42/3
f 26/41/6 32/48/6 28/43/6
f 28/43/6 32/48/6 30/49/6
f 33/50/1 34/51/1 35/52/1
f 35/52/1 34/51/1 36/53/1
f 36/54/2 34/55/2 37/56/2
f 37/56/2 34/55/2 38/50/2
f 35/55/3 36/57/3 39/50/3
f 39/50/3 36/57/3 37/51/3
f 39/58/5 40/1/5 35/50/5
f 35/50/5 40/1/5 33/56/5
f 40/52/6 38/53/6 33/59/6
f 33/59/6 38/53/6 34/60/6
f 41/61/1 42/62/1 43/63/1
f 43/63/1 42/62/1 44/64/1
f 45/65/2 43/63/2 46/66/2
f 46/66/2 43/63/2 44/67/2
f 47/68/3 41/61/3 45/65/3
f 45/65/3 41/61/3 43/63/3
f 48/69/4 47/68/4 46/70/4
f 46/70/4 47/68/4 45/65/4
f 42/62/6 48/71/6 44/64/6
f 44/64/6 48/71/6 46/72/6
f 49/73/1 50/74/1 51/75/1
f 51/75/1 50/74/1 52/76/1
f 53/77/2 51/75/2 54/78/2
f 54/78/2 51/75/2 52/79/2
f 55/80/4 56/81/4 54/82/4
f 54/82/4 56/81/4 53/77/4
f 49/83/5 56/79/5 50/84/5
f 50/84/5 56/79/5 55/75/5
f 50/74/6 55/85/6 52/76/6
f 52/76/6 55/85/6 54/86/6
f 57/87/1 58/88/1 59/89/1
f 59/89/1 58/88/1 60/90/1
f 61/91/2 59/89/2 62/92/2
f 62/92/2 59/89/2 60/93/2
f 63/94/3 57/87/3 61/91/3
f 61/91/3 57/87/3 59/89/3
f 64/95/4 63/94/4 62/96/4
f 62/96/4 63/94/4 61/91/4
f 58/88/6 64/97/6 60/90/6
f 60/90/6 64/97/6 62/98/6
f 65/99/1 66/100/1 67/101/1
f 67/101/1 66/100/1 68/102/1
f 69/103/2 67/101/2 70/104/2
f 70/104/2 67/101/2 68/105/2
f 71/106/3 65/99/3 69/103/3
f 69/103/3 65/99/3 67/101/3
f 72/107/4 71/106/4 70/108/4
f 70/108/4 71/106/4 69/103/4
f 65/109/5 71/105/5 66/110/5
f 66/110/5 71/105/5 72/101/5

